<svg width="43" height="30" viewBox="0 0 43 30" fill="none" xmlns="http://www.w3.org/2000/svg" id="change-bg">
<path d="M3.00001 19.328L5.69501 21.486C6.39146 22.0433 7.21831 22.4853 8.12834 22.7869C9.03836 23.0885 10.0137 23.2437 10.9988 23.2437C11.9838 23.2437 12.9592 23.0885 13.8692 22.7869C14.7792 22.4853 15.6061 22.0433 16.3025 21.486L18.0025 20.126C18.07 22.808 20.4 26 24.875 26C29.415 26 31.75 22.708 31.75 20C31.75 17.972 30.42 16.088 29.595 15.056C29.1945 14.5589 28.764 14.0777 28.305 13.614L28.2675 13.576L27.7325 13.056C27.1715 12.5282 26.3995 12.1721 25.5475 12.048C25.6318 11.1847 25.481 10.3171 25.1055 9.50498C24.73 8.69285 24.1388 7.95557 23.3725 7.344L21.695 6H36.75C38.4076 6 39.9973 6.52678 41.1694 7.46447C42.3415 8.40215 43 9.67392 43 11V25C43 26.3261 42.3415 27.5979 41.1694 28.5355C39.9973 29.4732 38.4076 30 36.75 30H9.25001C7.5924 30 6.00269 29.4732 4.83059 28.5355C3.65849 27.5979 3.00001 26.3261 3.00001 25V19.328ZM10.5 1C10.5 0.734784 10.6317 0.48043 10.8661 0.292893C11.1005 0.105357 11.4185 0 11.75 0C12.0815 0 12.3995 0.105357 12.6339 0.292893C12.8683 0.48043 13 0.734784 13 1V3.348C14.2 3.392 15.385 3.782 16.3 4.514L21.6075 8.76C22.5449 9.51011 23.0714 10.5273 23.0714 11.588C23.0714 12.6487 22.5449 13.6659 21.6075 14.416L14.5375 20.074C14.0732 20.4456 13.5219 20.7404 12.9151 20.9415C12.3084 21.1426 11.658 21.2461 11.0013 21.2461C10.3445 21.2461 9.69413 21.1426 9.08737 20.9415C8.48061 20.7404 7.92933 20.4456 7.46501 20.074L2.16001 15.828C1.22265 15.0779 0.696075 14.0607 0.696075 13C0.696075 11.9393 1.22265 10.9221 2.16001 10.172L9.23001 4.514C9.61251 4.208 10.0425 3.962 10.5 3.776V1ZM10.5 9V6.328L4.66001 11H20.46C20.3406 10.6873 20.1268 10.4029 19.8375 10.172L14.535 5.928C14.1233 5.59826 13.5801 5.39444 13 5.352V9C13 9.26522 12.8683 9.51957 12.6339 9.70711C12.3995 9.89464 12.0815 10 11.75 10C11.4185 10 11.1005 9.89464 10.8661 9.70711C10.6317 9.51957 10.5 9.26522 10.5 9ZM3.19501 13C3.19501 13.512 3.44001 14.024 3.92751 14.414L9.23001 18.656C9.46219 18.842 9.73791 18.9895 10.0414 19.0901C10.3449 19.1908 10.6702 19.2426 10.9988 19.2426C11.3273 19.2426 11.6526 19.1908 11.9561 19.0901C12.2596 18.9895 12.5353 18.842 12.7675 18.656L19.8375 13H3.19501ZM23.9425 14.334L23.405 14.854C23.0925 15.168 22.68 15.614 22.26 16.134C21.4625 17.13 20.5 18.592 20.5 20C20.5 22.018 22.18 24 24.875 24C27.5675 24 29.25 22.018 29.25 20C29.25 18.59 28.285 17.128 27.49 16.136C27.1345 15.6934 26.7524 15.2649 26.345 14.852L25.8075 14.334C25.6903 14.2289 25.5466 14.1448 25.3859 14.0873C25.2252 14.0297 25.0511 13.9999 24.875 13.9999C24.6989 13.9999 24.5248 14.0297 24.3641 14.0873C24.2034 14.1448 24.0598 14.2289 23.9425 14.334ZM24.365 17.214C24.5375 16.998 24.71 16.798 24.875 16.614C25.0375 16.798 25.2125 16.998 25.385 17.214C26.15 18.17 26.75 19.21 26.75 20C26.75 20.586 26.5 21.132 26.13 21.498C25.9852 21.655 25.796 21.7823 25.5779 21.8695C25.3597 21.9568 25.1189 22.0015 24.875 22C24.6311 22.0015 24.3903 21.9568 24.1722 21.8695C23.954 21.7823 23.7648 21.655 23.62 21.498C23.2108 21.0677 22.9926 20.5406 23 20C23 19.208 23.6 18.17 24.365 17.214Z" fill="white"/>
</svg>
