<svg width="38" height="29" viewBox="0 0 38 29" fill="none" xmlns="http://www.w3.org/2000/svg" id="toDo-icon">
<path d="M10.0625 0.600005L4.9375 4.70375L2.9375 3.10376L0.6875 4.90001L3.8125 7.40001L4.9375 8.25751L6.0625 7.39875L12.3125 2.39875L10.0625 0.598755V0.600005ZM17.4375 2.75001V5.25001H37.75V2.75001H17.4375ZM10.0625 10.6L4.9375 14.705L2.9375 13.1L0.6875 14.9L3.8125 17.4L4.9375 18.2575L6.0625 17.3988L12.3125 12.3988L10.0625 10.5988V10.6ZM17.4375 12.75V15.25H37.75V12.75H17.4375ZM10.0625 20.6L4.9375 24.7038L2.9375 23.1038L0.6875 24.9L3.8125 27.4L4.9375 28.2575L6.0625 27.3988L12.3125 22.3988L10.0625 20.5988V20.6ZM17.4375 22.75V25.25H37.75V22.75H17.4375Z" fill="white"/>
</svg>
