<svg width="42" height="26" viewBox="0 0 42 26" fill="none" xmlns="http://www.w3.org/2000/svg">
<path d="M23.0864 5.68166C29.6875 5.68166 33.4323 9.17666 33.9771 13.3983H34.1437C38.3917 13.3983 41.8354 16.1467 41.8354 19.5358C41.8354 22.9258 38.3917 25.6733 34.1437 25.6733H12.0292C7.78124 25.6733 4.33749 22.9258 4.33749 19.5358C4.33749 16.1467 7.78124 13.3983 12.0302 13.3983H12.1969C12.7448 9.14916 16.4854 5.68166 23.0864 5.68166V5.68166ZM16.8333 0.666657C18.4353 0.666222 20.0132 0.979216 21.4293 1.57836C22.8455 2.17751 24.057 3.04463 24.9583 4.10416C24.3361 4.04412 23.71 4.01434 23.0833 4.01499C16.7521 4.01499 12.1708 6.87999 10.625 11.1933L10.5417 11.435L10.4219 11.8308L9.99061 11.895C8.35086 12.1724 6.82791 12.7826 5.56822 13.667C4.30854 14.5514 3.35452 15.6803 2.7979 16.945C1.6753 16.2442 0.854176 15.2806 0.449128 14.1885C0.0440807 13.0964 0.0753194 11.9304 0.538485 10.8532C1.00165 9.77605 1.87363 8.84141 3.03274 8.17977C4.19184 7.51813 5.58024 7.16249 7.00415 7.16249H7.15207C7.5547 5.34236 8.74562 3.69377 10.5159 2.50596C12.2862 1.31815 14.5228 0.666964 16.8333 0.666657V0.666657Z" fill="white"/>
</svg>
